# xmcd
#
# Track frame offsets: 
#        150
#        13429
#        29101
#        45700
#        67667
#        83373
#        100532
#        116053
#        135411
#        156563
#        171322
#        190585
#
# Disc length: 2783 seconds
#
# Revision: 0
# Processed by: cddbd v1.5.2PL0 Copyright (c) Steve Scherf et al.
# Submitted via: ExactAudioCopy v0.99pb4
#
DISCID=980add0c
DTITLE=Various Artist - It's Christmas, Baby!
DYEAR=2008
DGENRE=Christmas/Holiday
TTITLE0=Rick Lawson - It's Christmas
TTITLE1=Barbara Carr - I Need A Man Down My Chimney
TTITLE2=Ms. Jody - It's Christmas, Baby!
TTITLE3=O.B. Buchana - Santa Bring My Baby Back
TTITLE4=Ms. Jody - This Christmas I'll Be Waiting For You
TTITLE5=Ms. Jody - Humping Santa
TTITLE6=Luther Lackey - Christmas In The Poor House
TTITLE7=Donnie Ray - Merry Christmas, Baby
TTITLE8=Sheba Potts-Wright - I Need A Lover For Christmas
TTITLE9=Sweet Angel - Merry Christmas, My Baby
TTITLE10=O.B. Buchana - It's Christmas
TTITLE11=Lee Shot Williams - I Ate Too Much Over The Holidays
EXTD=
EXTT0=
EXTT1=
EXTT2=
EXTT3=
EXTT4=
EXTT5=
EXTT6=
EXTT7=
EXTT8=
EXTT9=
EXTT10=
EXTT11=
PLAYORDER=
